<svg xmlns="http://www.w3.org/2000/svg" version="1.1" xmlns:xlink="http://www.w3.org/1999/xlink" xmlns:svgjs="http://svgjs.dev/svgjs" width="1000" height="181" viewBox="0 0 1000 181"><g transform="matrix(1,0,0,1,-0.6060606060606233,0.3778451388687927)"><svg viewBox="0 0 396 72" data-background-color="#4b91f1" preserveAspectRatio="xMidYMid meet" height="181" width="1000" xmlns="http://www.w3.org/2000/svg" xmlns:xlink="http://www.w3.org/1999/xlink"><g id="tight-bounds" transform="matrix(1,0,0,1,0.2400000000000091,-0.15030303866603845)"><svg viewBox="0 0 395.52 72.30060607733205" height="72.30060607733205" width="395.52"><g><svg viewBox="0 0 668.5800904891078 122.21567999999999" height="72.30060607733205" width="395.52"><g><rect width="4.59117340337497" height="107.85762804689769" x="256.4501385428664" y="7.179025976551152" fill="#77d4fc" opacity="1" stroke-width="0" stroke="transparent" fill-opacity="1" class="rect-r$-0" data-fill-palette-color="primary" rx="1%" id="r$-0" data-palette-color="#77d4fc"></rect></g><g transform="matrix(1,0,0,1,273.0600904891078,16.16716164712596)"><svg viewBox="0 0 395.52 89.88135670574808" height="89.88135670574808" width="395.52"><g id="textblocktransform"><svg viewBox="0 0 395.52 89.88135670574808" height="89.88135670574808" width="395.52" id="textblock"><g><svg viewBox="0 0 395.52 50.91063277447269" height="50.91063277447269" width="395.52"><g transform="matrix(1,0,0,1,0,0)"><svg width="395.52" viewBox="1.6 -35 277.34 35.7" height="50.91063277447269" data-palette-color="#77d4fc"><path d="M1.6-34.3L37.55-34.3 37.55-22.05 31.75-22.05 31.75-29.05 22.95-29.05 22.95-5.25 28.95-5.25 28.95 0 10.3 0 10.3-5.25 16.3-5.25 16.3-29.05 7.4-29.05 7.4-22.05 1.6-22.05 1.6-34.3ZM77.05-7.2L80.15-2.9Q78.75-1.3 77-0.3 75.25 0.7 72.7 0.7L72.7 0.7Q68.1 0.7 65.02-2.53 61.95-5.75 60.25-12.55L60.25-12.55 59.75-14.15 53.6-14.15 53.6-5.2 59.45-5.2 59.45 0 40.95 0 40.95-5.25 46.95-5.25 46.95-29.05 40.95-29.05 40.95-34.3 61.15-34.3Q67.2-34.3 70.77-31.63 74.35-28.95 74.35-24.25L74.35-24.25Q74.35-20.35 72.07-17.85 69.8-15.35 65.6-14.5L65.6-14.5 66.15-12.95Q67.5-8.85 69.22-7.13 70.95-5.4 73.1-5.4L73.1-5.4Q75.35-5.4 77.05-7.2L77.05-7.2ZM53.6-29.05L53.6-19.05 61.35-19.05Q64-19.05 65.9-20.38 67.8-21.7 67.8-24.25L67.8-24.25Q67.8-26.6 65.95-27.83 64.1-29.05 61.35-29.05L61.35-29.05 53.6-29.05ZM115.3-5.25L120.1-5.25 120.1 0 103.15 0 103.15-5.25 108.4-5.25 105.9-11.75 92.25-11.75 89.75-5.25 95.5-5.25 95.5 0 78.8 0 78.8-5.25 83.5-5.25 93.65-29.1 89.35-29.1 89.35-34.3 109.4-34.3 109.4-29.1 105.05-29.1 115.3-5.25ZM94.05-16.45L104.1-16.45 99.2-29.1 98.95-29.1 94.05-16.45ZM139.14-20.05Q145.74-18.2 149.27-15.63 152.79-13.05 152.79-8.8L152.79-8.8Q152.79-5.9 151.29-3.78 149.79-1.65 147.12-0.5 144.44 0.65 141.09 0.65L141.09 0.65Q134.69 0.65 128.79-4.6L128.79-4.6 128.79-0.05 122.99-0.05 122.99-12.05 126.94-12.3Q129.59-8.8 133.42-6.7 137.24-4.6 140.69-4.6L140.69-4.6Q142.99-4.6 144.44-5.53 145.89-6.45 145.89-8.15L145.89-8.15Q145.89-10.05 143.39-11.5 140.89-12.95 134.89-14.55L134.89-14.55Q128.79-16.2 125.97-18.88 123.14-21.55 123.14-25.55L123.14-25.55Q123.14-28.35 124.72-30.5 126.29-32.65 128.87-33.83 131.44-35 134.44-35L134.44-35Q141.04-35 145.19-30.55L145.19-30.55 145.19-34.3 150.99-34.3 150.99-22.55 147.24-22.35Q145.39-25.95 142.39-27.85 139.39-29.75 136.04-29.75L136.04-29.75Q133.39-29.75 131.72-28.7 130.04-27.65 130.04-25.85L130.04-25.85Q130.04-24 132.12-22.7 134.19-21.4 139.14-20.05L139.14-20.05ZM193.79-5.25L197.69-5.25 197.69 0 180.94 0 180.94-5.25 185.39-5.25 176.34-15.5 169.39-9.8 169.39-5.25 175.04-5.25 175.04 0 156.74 0 156.74-5.25 162.74-5.25 162.74-29.05 156.74-29.05 156.74-34.3 175.04-34.3 175.04-29.05 169.39-29.05 169.39-15.8 185.39-29.05 180.19-29.05 180.19-34.3 196.84-34.3 196.84-29.05 192.74-29.05 180.94-19.3 193.79-5.25ZM234.49-22.4L228.69-22.4 228.69-29.05 212.29-29.05 212.29-19.4 218.89-19.4 218.89-23.7 223.84-23.7 223.84-10.35 218.89-10.35 218.89-14.65 212.29-14.65 212.29-5.25 228.69-5.25 228.69-11.9 234.49-11.9 234.49 0 199.84 0 199.84-5.25 205.79-5.25 205.79-29.05 199.84-29.05 199.84-34.3 234.49-34.3 234.49-22.4ZM275.84-7.2L278.94-2.9Q277.54-1.3 275.79-0.3 274.04 0.7 271.49 0.7L271.49 0.7Q266.88 0.7 263.81-2.53 260.74-5.75 259.04-12.55L259.04-12.55 258.54-14.15 252.39-14.15 252.39-5.2 258.24-5.2 258.24 0 239.74 0 239.74-5.25 245.74-5.25 245.74-29.05 239.74-29.05 239.74-34.3 259.94-34.3Q265.99-34.3 269.56-31.63 273.13-28.95 273.13-24.25L273.13-24.25Q273.13-20.35 270.86-17.85 268.59-15.35 264.38-14.5L264.38-14.5 264.94-12.95Q266.29-8.85 268.01-7.13 269.74-5.4 271.88-5.4L271.88-5.4Q274.13-5.4 275.84-7.2L275.84-7.2ZM252.39-29.05L252.39-19.05 260.13-19.05Q262.79-19.05 264.69-20.38 266.59-21.7 266.59-24.25L266.59-24.25Q266.59-26.6 264.74-27.83 262.88-29.05 260.13-29.05L260.13-29.05 252.39-29.05Z" opacity="1" transform="matrix(1,0,0,1,0,0)" fill="#77d4fc" class="wordmark-text-0" data-fill-palette-color="primary" id="text-0"></path></svg></g></svg></g><g transform="matrix(1,0,0,1,0,62.9294113173391)"><svg viewBox="0 0 232.209792 26.951945388408976" height="26.951945388408976" width="232.209792"><g transform="matrix(1,0,0,1,0,0)"><svg width="232.209792" viewBox="1.85 -36.4 318.32 36.949999999999996" height="26.951945388408976" data-palette-color="#0f3054"><path d="M14.5-32.25L6.05-32.25Q5.25-32.25 4.67-31.75 4.1-31.25 3.9-30.5L3.9-30.5 1.85-30.5Q1.9-31.85 3.05-33L3.05-33Q4.3-34.25 5.9-34.25L5.9-34.25 28.55-34.25 28.55-32.25 16.6-32.25 16.6-0.05 14.5-0.05 14.5-32.25ZM52.55-2.4L54.15-1.4Q53.65-0.55 52.77-0.1 51.9 0.35 50.95 0.35L50.95 0.35Q49.15 0.35 48.1-0.68 47.05-1.7 46.9-3.7L46.9-3.7Q45.85-1.8 43.7-0.68 41.55 0.45 38.85 0.45L38.85 0.45Q35.4 0.45 33.02-1.28 30.65-3 29.47-5.88 28.3-8.75 28.3-12.25L28.3-12.25Q28.3-16.15 29.75-19.07 31.2-22 33.92-23.63 36.65-25.25 40.4-25.25L40.4-25.25Q41.55-25.25 43.32-25.13 45.1-25 46.45-24.8L46.45-24.8 48.95-24.8 48.95-3.9Q48.95-2.7 49.5-2.13 50.05-1.55 50.95-1.55L50.95-1.55Q51.4-1.55 51.87-1.8 52.35-2.05 52.55-2.4L52.55-2.4ZM46.85-9.3L46.85-23Q46.05-22.95 43.25-23.15L43.25-23.15 40.2-23.25Q35.45-23.25 32.92-20.15 30.4-17.05 30.4-12.35L30.4-12.35Q30.4-9.55 31.37-7.08 32.35-4.6 34.27-3.08 36.2-1.55 38.9-1.55L38.9-1.55Q41.35-1.55 43.25-2.75 45.15-3.95 46.1-5.85L46.1-5.85Q46.85-7.35 46.85-9.3L46.85-9.3ZM65.65 0.55Q63.1 0.55 60.9-0.35 58.7-1.25 56.65-3.15L56.65-3.15 57.85-4.6Q61.5-1.35 65.7-1.35L65.7-1.35Q68.55-1.35 70.4-2.8 72.25-4.25 72.25-6.7L72.25-6.7Q72.25-8.25 71.45-9.25 70.65-10.25 69.27-10.95 67.9-11.65 65.1-12.8L65.1-12.8Q62.5-13.85 61.1-14.6 59.7-15.35 58.82-16.53 57.95-17.7 57.95-19.45L57.95-19.45Q57.95-22.25 60.02-23.95 62.1-25.65 65.55-25.65L65.55-25.65Q68.75-25.65 71.5-23.9L71.5-23.9 70.5-22.3Q68.05-23.75 65.6-23.75L65.6-23.75Q63.15-23.75 61.62-22.55 60.1-21.35 60.1-19.45L60.1-19.45Q60.1-18.4 60.67-17.68 61.25-16.95 62.6-16.23 63.95-15.5 66.85-14.25L66.85-14.25Q69.85-12.95 71.3-12.1 72.75-11.25 73.57-10.05 74.4-8.85 74.4-6.95L74.4-6.95Q74.4-3.5 72-1.48 69.6 0.55 65.65 0.55L65.65 0.55ZM80.24-36.4L82.34-36.4 82.34-18.9Q83.49-22.05 85.74-23.73 87.99-25.4 90.94-25.4L90.94-25.4Q94.34-25.4 96.39-23.38 98.44-21.35 98.44-17.95L98.44-17.95Q98.44-13.1 93.49-10.85L93.49-10.85 98.09-2.95Q98.84-1.55 99.94-1.55L99.94-1.55Q100.79-1.55 101.34-2.2L101.34-2.2 102.74-0.95Q102.04-0.25 101.42 0.08 100.79 0.4 99.89 0.4L99.89 0.4Q98.74 0.4 97.92-0.05 97.09-0.5 96.44-1.6L96.44-1.6 91.44-10.3 82.34-10.3 82.34 0 80.24 0 80.24-36.4ZM88.74-12.25Q91.34-12.25 92.89-12.95L92.89-12.95Q94.59-13.65 95.57-15.03 96.54-16.4 96.54-18.15L96.54-18.15Q96.54-20.45 94.97-21.98 93.39-23.5 90.84-23.5L90.84-23.5Q88.09-23.5 86.04-21.68 83.99-19.85 83.04-16.55L83.04-16.55Q82.39-14.2 82.44-12.25L82.44-12.25 88.74-12.25ZM128.64-5.5L128.64-13.7 120.54-13.7 120.54-15.6 128.64-15.6 128.64-23.75 130.74-23.75 130.74-15.6 138.84-15.6 138.84-13.7 130.74-13.7 130.74-5.5 128.64-5.5ZM170.33-32.25L161.88-32.25Q161.08-32.25 160.51-31.75 159.93-31.25 159.73-30.5L159.73-30.5 157.68-30.5Q157.73-31.85 158.88-33L158.88-33Q160.13-34.25 161.73-34.25L161.73-34.25 184.38-34.25 184.38-32.25 172.43-32.25 172.43-0.05 170.33-0.05 170.33-32.25ZM196.73-25.25Q197.43-25.25 199.33-24.9L199.33-24.9 199.33-23Q197.88-23.25 196.83-23.25L196.83-23.25Q193.98-23.25 192.23-21.85L192.23-21.85Q191.48-21.2 190.63-20.18 189.78-19.15 189.18-18L189.18-18 189.18-0.05 187.08-0.05 187.08-18.1Q187.08-20.3 186.63-21.58 186.18-22.85 185.23-24.05L185.23-24.05 186.63-25.4Q187.73-24.35 188.41-23.03 189.08-21.7 189.18-20.25L189.18-20.25Q189.83-21.55 190.73-22.6 191.63-23.65 192.53-24.2L192.53-24.2Q194.23-25.25 196.73-25.25L196.73-25.25ZM225.88-2.4L227.48-1.4Q226.98-0.55 226.1-0.1 225.23 0.35 224.28 0.35L224.28 0.35Q222.48 0.35 221.43-0.68 220.38-1.7 220.23-3.7L220.23-3.7Q219.18-1.8 217.03-0.68 214.88 0.45 212.18 0.45L212.18 0.45Q208.73 0.45 206.35-1.28 203.98-3 202.8-5.88 201.63-8.75 201.63-12.25L201.63-12.25Q201.63-16.15 203.08-19.07 204.53-22 207.25-23.63 209.98-25.25 213.73-25.25L213.73-25.25Q214.88-25.25 216.65-25.13 218.43-25 219.78-24.8L219.78-24.8 222.28-24.8 222.28-3.9Q222.28-2.7 222.83-2.13 223.38-1.55 224.28-1.55L224.28-1.55Q224.73-1.55 225.2-1.8 225.68-2.05 225.88-2.4L225.88-2.4ZM220.18-9.3L220.18-23Q219.38-22.95 216.58-23.15L216.58-23.15 213.53-23.25Q208.78-23.25 206.25-20.15 203.73-17.05 203.73-12.35L203.73-12.35Q203.73-9.55 204.7-7.08 205.68-4.6 207.6-3.08 209.53-1.55 212.23-1.55L212.23-1.55Q214.68-1.55 216.58-2.75 218.48-3.95 219.43-5.85L219.43-5.85Q220.18-7.35 220.18-9.3L220.18-9.3ZM241.33 0.25Q235.78 0.25 232.73-2.93 229.68-6.1 229.68-11.85L229.68-11.85Q229.68-15.9 231.08-18.98 232.48-22.05 235.03-23.75 237.58-25.45 240.93-25.45L240.93-25.45Q244.63-25.45 247.03-23.5 249.43-21.55 249.58-18.4L249.58-18.4 247.63-18.4Q247.48-20.75 245.68-22.15 243.88-23.55 241.03-23.55L241.03-23.55Q238.38-23.55 236.28-22.03 234.18-20.5 232.98-17.82 231.78-15.15 231.78-11.8L231.78-11.8Q231.78-7.05 234.33-4.35 236.88-1.65 241.33-1.65L241.33-1.65Q243.18-1.65 244.95-2.18 246.73-2.7 249.28-4L249.28-4 250.23-2.45Q248.08-1.05 245.93-0.4 243.78 0.25 241.33 0.25L241.33 0.25ZM256.02-36.4L258.12-36.4 258.12-18.9Q259.27-22.05 261.52-23.73 263.77-25.4 266.72-25.4L266.72-25.4Q270.12-25.4 272.17-23.38 274.22-21.35 274.22-17.95L274.22-17.95Q274.22-13.1 269.27-10.85L269.27-10.85 273.87-2.95Q274.62-1.55 275.72-1.55L275.72-1.55Q276.57-1.55 277.12-2.2L277.12-2.2 278.52-0.95Q277.82-0.25 277.2 0.08 276.57 0.4 275.67 0.4L275.67 0.4Q274.52 0.4 273.7-0.05 272.87-0.5 272.22-1.6L272.22-1.6 267.22-10.3 258.12-10.3 258.12 0 256.02 0 256.02-36.4ZM264.52-12.25Q267.12-12.25 268.67-12.95L268.67-12.95Q270.37-13.65 271.35-15.03 272.32-16.4 272.32-18.15L272.32-18.15Q272.32-20.45 270.75-21.98 269.17-23.5 266.62-23.5L266.62-23.5Q263.87-23.5 261.82-21.68 259.77-19.85 258.82-16.55L258.82-16.55Q258.17-14.2 258.22-12.25L258.22-12.25 264.52-12.25ZM292.47 0.45Q286.92 0.45 284.07-2.83 281.22-6.1 281.22-11.45L281.22-11.45Q281.22-14.9 282.42-18.05 283.62-21.2 286.12-23.23 288.62-25.25 292.27-25.25L292.27-25.25Q296.07-25.25 298.62-23.2 301.17-21.15 301.17-17.75L301.17-17.75Q301.17-14.15 298.2-12.2 295.22-10.25 290.12-10.25L290.12-10.25 283.47-10.25Q283.87-6.05 286.17-3.75 288.47-1.45 292.47-1.45L292.47-1.45Q294.72-1.45 296.6-2.1 298.47-2.75 300.47-4L300.47-4 301.52-2.55Q297.27 0.45 292.47 0.45L292.47 0.45ZM290.12-12.15Q294.12-12.15 296.6-13.5 299.07-14.85 299.07-17.8L299.07-17.8Q299.07-20.5 297.07-21.93 295.07-23.35 292.42-23.35L292.42-23.35Q289.37-23.35 287.3-21.53 285.22-19.7 284.25-17.07 283.27-14.45 283.37-12.15L283.37-12.15 290.12-12.15ZM317.57-25.25Q318.27-25.25 320.17-24.9L320.17-24.9 320.17-23Q318.72-23.25 317.67-23.25L317.67-23.25Q314.82-23.25 313.07-21.85L313.07-21.85Q312.32-21.2 311.47-20.18 310.62-19.15 310.02-18L310.02-18 310.02-0.05 307.92-0.05 307.92-18.1Q307.92-20.3 307.47-21.58 307.02-22.85 306.07-24.05L306.07-24.05 307.47-25.4Q308.57-24.35 309.24-23.03 309.92-21.7 310.02-20.25L310.02-20.25Q310.67-21.55 311.57-22.6 312.47-23.65 313.37-24.2L313.37-24.2Q315.07-25.25 317.57-25.25L317.57-25.25Z" opacity="1" transform="matrix(1,0,0,1,0,0)" fill="#0f3054" class="slogan-text-1" data-fill-palette-color="secondary" id="text-1"></path></svg></g></svg></g></svg></g></svg></g><g><svg viewBox="0 0 244.43135999999998 122.21567999999999" height="122.21567999999999" width="244.43135999999998"><g><svg xmlns="http://www.w3.org/2000/svg" version="1.1" data-icon="task" data-container-transform="translate(0 4)" viewBox="0 4 16 8" x="0" y="0" height="122.21567999999999" width="244.43135999999998" class="icon-icon-0" data-fill-palette-color="accent" id="icon-0"></svg></g></svg></g></svg></g><defs></defs><mask id="3c91b2bc-bcd8-4771-86ad-f2f4f3c32e01"><g id="SvgjsG1514"><svg viewBox="0 0 395.52 72.30060607733205" height="72.30060607733205" width="395.52"><g><svg viewBox="0 0 668.5800904891078 122.21567999999999" height="72.30060607733205" width="395.52"><g></g><g transform="matrix(1,0,0,1,273.0600904891078,16.16716164712596)"><svg viewBox="0 0 395.52 89.88135670574808" height="89.88135670574808" width="395.52"><g id="SvgjsG1512"><svg viewBox="0 0 395.52 89.88135670574808" height="89.88135670574808" width="395.52" id="SvgjsSvg1511"><g><svg viewBox="0 0 395.52 50.91063277447269" height="50.91063277447269" width="395.52"><g transform="matrix(1,0,0,1,0,0)"><svg width="395.52" viewBox="1.6 -35 277.34 35.7" height="50.91063277447269" data-palette-color="#77d4fc"></svg></g></svg></g><g transform="matrix(1,0,0,1,0,62.9294113173391)"><svg viewBox="0 0 232.209792 26.951945388408976" height="26.951945388408976" width="232.209792"><g transform="matrix(1,0,0,1,0,0)"><svg width="232.209792" viewBox="1.85 -36.4 318.32 36.949999999999996" height="26.951945388408976" data-palette-color="#0f3054"></svg></g></svg></g></svg></g></svg></g><g><svg viewBox="0 0 244.43135999999998 122.21567999999999" height="122.21567999999999" width="244.43135999999998"><g><svg xmlns="http://www.w3.org/2000/svg" version="1.1" data-icon="task" data-container-transform="translate(0 4)" viewBox="0 4 16 8" x="0" y="0" height="122.21567999999999" width="244.43135999999998" class="icon-icon-0" data-fill-palette-color="accent" id="SvgjsSvg1508"><path d="M0 0v8h8v-4.094l-1 1v2.094h-6v-6h4.188l1-1h-6.188z m7.594 0l-3.094 3.063-1.281-1.281-1.438 1.438 2 2 0.719 0.688 0.719-0.688 3.781-3.813-1.406-1.406z m2.406 2v1h6v-1h-6z m0 3v1h5v-1h-5z" transform="translate(0 4)" fill="white"></path></svg></g></svg></g></svg></g><defs><mask></mask></defs></svg></g></mask><linearGradient x1="0.054" x2="0.941" y1="0.5" y2="0.5" id="52798c4a-f223-48d8-a485-e8de363bef1d"><stop stop-color="#0f3054" offset="0"></stop><stop stop-color="#3b8dcb" offset="0.498"></stop><stop stop-color="#0f3054" offset="1"></stop></linearGradient><rect width="395.52" height="72.30060607733205" fill="url(#52798c4a-f223-48d8-a485-e8de363bef1d)" mask="url(#3c91b2bc-bcd8-4771-86ad-f2f4f3c32e01)" data-fill-palette-color="accent"></rect></svg><rect width="395.52" height="72.30060607733205" fill="none" stroke="none" visibility="hidden"></rect></g></svg></g></svg>